<?xml version="1.0" encoding="UTF-8" standalone="no"?>
<!-- Created with Inkscape (http://www.inkscape.org/) -->

<svg
   xmlns:osb="http://www.openswatchbook.org/uri/2009/osb"
   xmlns:dc="http://purl.org/dc/elements/1.1/"
   xmlns:cc="http://creativecommons.org/ns#"
   xmlns:rdf="http://www.w3.org/1999/02/22-rdf-syntax-ns#"
   xmlns:svg="http://www.w3.org/2000/svg"
   xmlns="http://www.w3.org/2000/svg"
   xmlns:xlink="http://www.w3.org/1999/xlink"
   xmlns:sodipodi="http://sodipodi.sourceforge.net/DTD/sodipodi-0.dtd"
   xmlns:inkscape="http://www.inkscape.org/namespaces/inkscape"
   width="1052.3622"
   height="744.09448"
   id="svg2"
   version="1.1"
   inkscape:version="0.48.4 r9939"
   sodipodi:docname="fhq_2015_diplom_winner.svg"
   inkscape:export-filename="fhq_2015_diplom_winner.png"
   inkscape:export-xdpi="300.0249"
   inkscape:export-ydpi="300.0249">
  <defs
     id="defs4">
    <linearGradient
       id="linearGradient5447">
      <stop
         style="stop-color:#a7deee;stop-opacity:1;"
         offset="0"
         id="stop5449" />
      <stop
         style="stop-color:#a7deee;stop-opacity:0;"
         offset="1"
         id="stop5451" />
    </linearGradient>
    <linearGradient
       id="linearGradient5425"
       osb:paint="gradient">
      <stop
         style="stop-color:#a7deee;stop-opacity:1;"
         offset="0"
         id="stop5427" />
      <stop
         style="stop-color:#a7deee;stop-opacity:0;"
         offset="1"
         id="stop5429" />
    </linearGradient>
    <linearGradient
       id="linearGradient5389"
       osb:paint="solid">
      <stop
         style="stop-color:#000000;stop-opacity:1;"
         offset="0"
         id="stop5391" />
    </linearGradient>
    <linearGradient
       id="linearGradient3947"
       osb:paint="solid">
      <stop
         style="stop-color:#a7deee;stop-opacity:1;"
         offset="0"
         id="stop3949" />
    </linearGradient>
    <linearGradient
       osb:paint="gradient"
       id="linearGradient3786">
      <stop
         id="stop3788"
         offset="0"
         style="stop-color:#ffff00;stop-opacity:1;" />
      <stop
         id="stop3790"
         offset="1"
         style="stop-color:#ffff00;stop-opacity:0;" />
    </linearGradient>
    <radialGradient
       inkscape:collect="always"
       xlink:href="#linearGradient5447"
       id="radialGradient5453"
       cx="522.24884"
       cy="578.42944"
       fx="522.24884"
       fy="578.42944"
       r="456.58896"
       gradientTransform="matrix(0.46460177,0.07364228,-0.0321075,0.12723105,314.89696,794.85304)"
       gradientUnits="userSpaceOnUse" />
    <radialGradient
       inkscape:collect="always"
       xlink:href="#linearGradient5447"
       id="radialGradient5457"
       gradientUnits="userSpaceOnUse"
       gradientTransform="matrix(0.43697128,0.07364228,-0.03019802,0.12723105,12.692594,787.88529)"
       cx="522.24884"
       cy="578.42944"
       fx="522.24884"
       fy="578.42944"
       r="456.58896" />
    <radialGradient
       inkscape:collect="always"
       xlink:href="#linearGradient5447"
       id="radialGradient5490"
       gradientUnits="userSpaceOnUse"
       gradientTransform="matrix(0.4533449,0.07634121,-0.03132957,0.13189396,616.37341,784.30026)"
       cx="522.24884"
       cy="578.42944"
       fx="522.24884"
       fy="578.42944"
       r="456.58896" />
    <radialGradient
       inkscape:collect="always"
       xlink:href="#linearGradient5447"
       id="radialGradient3901"
       gradientUnits="userSpaceOnUse"
       gradientTransform="matrix(0.43697128,0.07364228,-0.03019802,0.12723105,12.692594,787.88529)"
       cx="522.24884"
       cy="578.42944"
       fx="522.24884"
       fy="578.42944"
       r="456.58896"
       spreadMethod="pad" />
  </defs>
  <sodipodi:namedview
     id="base"
     pagecolor="#4393bd"
     bordercolor="#666666"
     borderopacity="1.0"
     inkscape:pageopacity="0"
     inkscape:pageshadow="2"
     inkscape:zoom="1.4"
     inkscape:cx="542.93438"
     inkscape:cy="146.54235"
     inkscape:document-units="px"
     inkscape:current-layer="layer1"
     showgrid="false"
     inkscape:window-width="1865"
     inkscape:window-height="1056"
     inkscape:window-x="55"
     inkscape:window-y="24"
     inkscape:window-maximized="1" />
  <metadata
     id="metadata7">
    <rdf:RDF>
      <cc:Work
         rdf:about="">
        <dc:format>image/svg+xml</dc:format>
        <dc:type
           rdf:resource="http://purl.org/dc/dcmitype/StillImage" />
        <dc:title />
      </cc:Work>
    </rdf:RDF>
  </metadata>
  <g
     inkscape:label="Layer 1"
     inkscape:groupmode="layer"
     id="layer1"
     transform="translate(0,-308.2677)">
    <rect
       style="fill:#cc0000;fill-opacity:1;fill-rule:nonzero;stroke:none"
       id="rect3755"
       width="1052.3048"
       height="744.11243"
       x="0.047045592"
       y="308.23428"
       rx="0"
       ry="0" />
    <rect
       style="fill:#cc0000;fill-opacity:1;stroke:#cb6d47;stroke-width:7.75031232999999986;stroke-miterlimit:4;stroke-opacity:1;stroke-dasharray:none"
       id="rect3757"
       width="963.28705"
       height="653.51697"
       x="43.320564"
       y="353.52029"
       ry="0" />
    <text
       xml:space="preserve"
       style="font-size:40px;font-style:normal;font-weight:normal;line-height:125%;letter-spacing:0px;word-spacing:0px;fill:#cbe8ec;fill-opacity:1;stroke:none;font-family:Sans"
       x="63.801922"
       y="406.46146"
       id="text3921"
       sodipodi:linespacing="125%"><tspan
         sodipodi:role="line"
         id="tspan3923"
         x="63.801922"
         y="406.46146"
         style="font-size:40px;font-style:normal;font-variant:normal;font-weight:bold;font-stretch:normal;fill:#cbe8ec;fill-opacity:1;font-family:Monospace;-inkscape-font-specification:Monospace Bold">Tomsk</tspan><tspan
         sodipodi:role="line"
         x="63.801922"
         y="456.46146"
         style="font-size:40px;font-style:normal;font-variant:normal;font-weight:bold;font-stretch:normal;fill:#cbe8ec;fill-opacity:1;font-family:Monospace;-inkscape-font-specification:Monospace Bold"
         id="tspan5631">TUSUR</tspan><tspan
         sodipodi:role="line"
         x="63.801922"
         y="506.46146"
         style="font-size:40px;font-style:normal;font-variant:normal;font-weight:bold;font-stretch:normal;fill:#cbe8ec;fill-opacity:1;font-family:Monospace;-inkscape-font-specification:Monospace Bold"
         id="tspan3944">Sept</tspan><tspan
         sodipodi:role="line"
         x="63.801922"
         y="556.46143"
         style="font-size:40px;font-style:normal;font-variant:normal;font-weight:bold;font-stretch:normal;fill:#cbe8ec;fill-opacity:1;font-family:Monospace;-inkscape-font-specification:Monospace Bold"
         id="tspan3938">2015</tspan></text>
    <text
       xml:space="preserve"
       style="font-size:40px;font-style:normal;font-weight:bold;text-align:center;line-height:125%;letter-spacing:0px;word-spacing:0px;text-anchor:middle;fill:#cbe8ec;fill-opacity:1;stroke:none;font-family:Sans;-inkscape-font-specification:Monospace Bold"
       x="526.90967"
       y="693.17236"
       id="text3925"
       sodipodi:linespacing="125%"><tspan
         sodipodi:role="line"
         x="526.90967"
         y="693.17236"
         id="tspan3929"
         style="font-size:40px;font-style:normal;font-variant:normal;font-weight:bold;font-stretch:normal;text-align:center;text-anchor:middle;fill:#cbe8ec;fill-opacity:1;stroke:none;font-family:Monospace;-inkscape-font-specification:Monospace Bold" /><tspan
         sodipodi:role="line"
         x="526.90967"
         y="743.17236"
         style="font-size:40px;font-style:normal;font-variant:normal;font-weight:bold;font-stretch:normal;text-align:center;text-anchor:middle;fill:#cbe8ec;fill-opacity:1;stroke:none;font-family:Monospace;-inkscape-font-specification:Monospace Bold"
         id="tspan3946">#nickname</tspan><tspan
         sodipodi:role="line"
         x="526.90967"
         y="793.17236"
         style="font-size:40px;font-style:normal;font-variant:normal;font-weight:bold;font-stretch:normal;text-align:center;text-anchor:middle;fill:#cbe8ec;fill-opacity:1;stroke:none;font-family:Monospace;-inkscape-font-specification:Monospace Bold"
         id="tspan3950">За #place место</tspan><tspan
         sodipodi:role="line"
         x="526.90967"
         y="843.17236"
         style="font-size:40px;font-weight:bold;text-align:center;text-anchor:middle;fill:#cbe8ec;fill-opacity:1;stroke:none;-inkscape-font-specification:Monospace Bold"
         id="tspan3948" /></text>
    <text
       xml:space="preserve"
       style="font-size:40px;font-style:normal;font-weight:normal;line-height:125%;letter-spacing:0px;word-spacing:0px;fill:#000000;fill-opacity:1;stroke:none;font-family:Sans"
       x="688.27252"
       y="682.44562"
       id="text3933"
       sodipodi:linespacing="125%"
       transform="scale(0.92703941,1.0787028)"><tspan
         sodipodi:role="line"
         id="tspan3935"
         x="688.27252"
         y="682.44562"
         style="font-size:40px;text-align:center;text-anchor:middle" /></text>
    <text
       xml:space="preserve"
       style="font-size:40px;font-style:normal;font-weight:bold;text-align:center;line-height:125%;letter-spacing:0px;word-spacing:0px;text-anchor:middle;fill:#cbe8ec;fill-opacity:1;stroke:none;font-family:Sans;-inkscape-font-specification:Sans Bold Italic"
       x="528.95148"
       y="829.75214"
       id="text3937"
       sodipodi:linespacing="125%"><tspan
         sodipodi:role="line"
         id="tspan3939"
         x="528.95148"
         y="829.75214"
         style="font-size:24px;font-style:italic;font-weight:bold;text-align:center;text-anchor:middle;fill:#cbe8ec;fill-opacity:1;stroke:none;-inkscape-font-specification:Sans Bold Italic">В соревнованиях по информационной безопасности</tspan><tspan
         sodipodi:role="line"
         x="528.95148"
         y="859.75214"
         style="font-size:24px;font-style:italic;font-weight:bold;text-align:center;text-anchor:middle;fill:#cbe8ec;fill-opacity:1;stroke:none;-inkscape-font-specification:Sans Bold Italic"
         id="tspan3160">среди участников из #university</tspan></text>
    <text
       xml:space="preserve"
       style="font-size:40px;font-style:normal;font-weight:normal;text-align:end;line-height:125%;letter-spacing:0px;word-spacing:0px;text-anchor:end;fill:#cbe8ec;fill-opacity:1;stroke:none;font-family:Sans"
       x="982.41028"
       y="404.6409"
       id="text3941"
       sodipodi:linespacing="125%"><tspan
         sodipodi:role="line"
         id="tspan3943"
         x="982.41028"
         y="404.6409"
         style="font-size:40px;font-style:normal;font-variant:normal;font-weight:bold;font-stretch:normal;text-align:end;text-anchor:end;fill:#cbe8ec;fill-opacity:1;font-family:Monospace;-inkscape-font-specification:Monospace Bold">Free</tspan><tspan
         sodipodi:role="line"
         x="982.41028"
         y="454.6409"
         id="tspan3164"
         style="font-size:40px;font-style:normal;font-variant:normal;font-weight:bold;font-stretch:normal;text-align:end;text-anchor:end;fill:#cbe8ec;fill-opacity:1;font-family:Monospace;-inkscape-font-specification:Monospace Bold">Hack</tspan><tspan
         sodipodi:role="line"
         x="982.41028"
         y="504.6409"
         style="font-size:40px;font-style:normal;font-variant:normal;font-weight:bold;font-stretch:normal;text-align:end;text-anchor:end;fill:#cbe8ec;fill-opacity:1;font-family:Monospace;-inkscape-font-specification:Monospace Bold"
         id="tspan3942">Quest</tspan><tspan
         sodipodi:role="line"
         x="982.41028"
         y="554.64087"
         id="tspan3166"
         style="font-size:40px;font-style:normal;font-variant:normal;font-weight:bold;font-stretch:normal;text-align:end;text-anchor:end;fill:#cbe8ec;fill-opacity:1;font-family:Monospace;-inkscape-font-specification:Monospace Bold">2015</tspan></text>
    <text
       sodipodi:linespacing="125%"
       id="text5484"
       y="957.91907"
       x="405.43478"
       style="font-size:40px;font-style:normal;font-weight:bold;line-height:125%;letter-spacing:0px;word-spacing:0px;fill:#cbe8ec;fill-opacity:1;stroke:none;font-family:Sans;-inkscape-font-specification:Sans Bold"
       xml:space="preserve"><tspan
         y="957.91907"
         x="405.43478"
         id="tspan5486"
         sodipodi:role="line"
         style="font-size:24px;font-weight:bold;fill:#cbe8ec;fill-opacity:1;stroke:none;-inkscape-font-specification:Sans Bold">Тренер команды Keva</tspan><tspan
         y="987.91907"
         x="405.43478"
         sodipodi:role="line"
         id="tspan5492"
         style="font-size:24px;font-weight:bold;fill:#cbe8ec;fill-opacity:1;stroke:none;-inkscape-font-specification:Sans Bold">Гуляев А.И.</tspan></text>
    <text
       xml:space="preserve"
       style="font-size:40px;font-style:normal;font-weight:bold;line-height:125%;letter-spacing:0px;word-spacing:0px;fill:#cbe8ec;fill-opacity:1;stroke:none;font-family:Sans;-inkscape-font-specification:Sans Bold"
       x="752.83325"
       y="958.39874"
       id="text5494"
       sodipodi:linespacing="125%"><tspan
         style="font-size:24px;font-weight:bold;fill:#cbe8ec;fill-opacity:1;stroke:none;-inkscape-font-specification:Sans Bold"
         sodipodi:role="line"
         id="tspan5496"
         x="752.83325"
         y="958.39874">Организатор FHQ</tspan><tspan
         style="font-size:24px;font-weight:bold;fill:#cbe8ec;fill-opacity:1;stroke:none;-inkscape-font-specification:Sans Bold"
         id="tspan5498"
         sodipodi:role="line"
         x="752.83325"
         y="988.39874">Сопов Е.А.</tspan></text>
    <g
       id="g3096"
       transform="translate(2.1428571,19.285714)">
      <path
         sodipodi:nodetypes="cccccc"
         inkscape:connector-curvature="0"
         id="path3759"
         d="m 523.57143,580.88632 82.14286,26.47555 0,-201.07112 -166.73803,0 -0.25254,201.24475 z"
         style="fill:#cbe8ec;fill-opacity:1;stroke:none" />
      <path
         sodipodi:nodetypes="cccccc"
         inkscape:connector-curvature="0"
         id="path3791"
         d="m 327.32143,498.25503 -95,0 11.52615,28.02181 -11.30216,28.40537 153.16886,-0.35714 z"
         style="fill:#a7deee;fill-opacity:1;stroke:none" />
      <path
         style="fill:#a7deee;fill-opacity:1;stroke:none"
         d="m 722.11078,497.87197 95,0 -11.52615,28.02181 11.30216,28.40537 -153.16886,-0.35714 z"
         id="path3793"
         inkscape:connector-curvature="0"
         sodipodi:nodetypes="cccccc" />
      <rect
         y="470.69995"
         x="327.48376"
         height="56.691093"
         width="393.86053"
         id="rect3765"
         style="fill:#44aae1;fill-opacity:1;fill-rule:nonzero;stroke:none" />
      <text
         sodipodi:linespacing="125%"
         id="text3767"
         y="506.77045"
         x="418.42422"
         style="font-size:40px;font-style:normal;font-weight:normal;line-height:125%;letter-spacing:0px;word-spacing:0px;fill:#000000;fill-opacity:1;stroke:none;font-family:Sans"
         xml:space="preserve"><tspan
           style="font-size:24px;font-weight:bold;fill:#ffffff;fill-opacity:1;-inkscape-font-specification:Sans Bold"
           y="506.77045"
           x="418.42422"
           id="tspan3769"
           sodipodi:role="line">ПОБЕДИТЕЛЮ</tspan></text>
      <path
         inkscape:connector-curvature="0"
         id="path3771"
         d="m 663.57143,527.36218 -0.35714,27.14285 58.57143,-27.14285 z"
         style="fill:#44aae1;fill-opacity:1;stroke:none" />
      <path
         inkscape:connector-curvature="0"
         id="path3771-2"
         d="m 385.52552,527.17709 0.35714,27.14285 -58.57143,-27.14285 z"
         style="fill:#44aae1;fill-opacity:1;stroke:none" />
      <g
         inkscape:label="Layer 1"
         id="layer1-9"
         transform="matrix(0.22499351,0,0,0.22718524,406.92967,456.16756)"
         style="display:inline">
        <flowRoot
           xml:space="preserve"
           id="flowRoot3006"
           style="font-size:40px;font-style:normal;font-weight:normal;line-height:125%;letter-spacing:0px;word-spacing:0px;fill:#000000;fill-opacity:1;stroke:none;font-family:Sans"><flowRegion
             id="flowRegion3008"><rect
               id="rect3010"
               width="27.142857"
               height="50"
               x="168.57143"
               y="670.93359" /></flowRegion><flowPara
             id="flowPara3012" /></flowRoot>        <g
           id="g3971"
           transform="matrix(0.99445811,0,0,0.97070109,61.330053,19.248412)">
          <rect
             transform="matrix(0.71525946,0.698859,-0.69607863,0.71796556,0,0)"
             ry="38.481194"
             rx="33.043503"
             y="-90.320862"
             x="545.05463"
             height="511.46744"
             width="510.78897"
             id="rect3907"
             style="fill:#000000;fill-opacity:1;fill-rule:nonzero;stroke:none" />
          <g
             id="g3934">
            <rect
               style="fill:#fecc00;fill-opacity:1;fill-rule:nonzero;stroke:none"
               id="rect3911"
               width="461.37881"
               height="455.14954"
               x="-390.41376"
               y="575.97162"
               rx="23.865061"
               ry="27.34059"
               transform="matrix(0.709683,-0.70452115,0.71027898,0.70392029,0,0)" />
            <text
               xml:space="preserve"
               style="font-size:141.94515991px;font-style:normal;font-variant:normal;font-weight:normal;font-stretch:normal;line-height:125%;letter-spacing:0px;word-spacing:0px;fill:#000000;fill-opacity:1;stroke:none;font-family:UnDinaru;-inkscape-font-specification:UnDinaru"
               x="-395.09012"
               y="609.64899"
               id="text2991"
               sodipodi:linespacing="125%"
               transform="matrix(0.61933718,-0.62448636,0.79503782,0.81298159,0,0)"><tspan
                 sodipodi:role="line"
                 id="tspan2993"
                 x="-395.09012"
                 y="609.64899"
                 style="font-size:141.94515991px;font-style:normal;font-variant:normal;font-weight:bold;font-stretch:normal;font-family:FreeMono;-inkscape-font-specification:FreeMono Bold">keva</tspan></text>
            <g
               id="g4260"
               transform="matrix(1.3755622,0,0,1.4001564,-297.36967,-244.97283)">
              <path
                 id="path3939"
                 style="fill:#ffffff;stroke:#000000;stroke-width:5.28543806;stroke-linejoin:round"
                 d="m 637.853,638.49012 0,0 35.77799,-33.75228 c 6.92397,-5.67386 9.07467,-0.65786 15.55404,-3.90507 5.16954,-1.37519 8.95146,-4.9478 7.36663,-10.87718 -3.59557,-4.11384 -6.65301,-6.50986 -12.30433,-10.56968 -0.89941,-5.6388 -2.82675,-10.78818 -5.64769,-15.71264 -2.43163,-2.70774 -5.93412,-3.29482 -9.60816,3.56951 -3.95877,5.77801 -1.16706,11.48224 -6.01762,19.33595 -8.76923,8.60622 -16.77897,16.32774 -26.48626,25.86404 l -77.06429,57.08212 c -8.471,8.83998 -16.13772,17.0148 -26.26337,25.11296 -8.54915,5.07869 -9.59855,-1.91102 -19.75494,5.423 -2.52972,3.87606 -1.57196,8.26511 1.66422,10.92488 3.71336,2.8492 6.26332,4.60129 9.52927,7.09955 1.7626,4.34157 2.67495,8.20205 4.25943,13.51425 3.15025,6.23154 7.00846,4.87691 9.74646,0.7945 1.02571,-2.64982 2.45414,-5.16889 3.07722,-7.94898 0.87588,-3.69218 1.84056,-7.86986 3.29772,-11.47668 l 23.40301,-24.39536 z"
                 inkscape:connector-curvature="0" />
              <path
                 id="path3937"
                 style="fill:#ffffff;stroke:#000000;stroke-width:5.28543806;stroke-linejoin:round"
                 d="m 647.57804,700.12454 0,0 22.8392,24.47371 c 4.61092,8.33749 1.61439,12.1239 4.96973,17.42582 3.08355,5.95369 5.7207,7.5751 9.75492,4.10825 3.6751,-4.24038 4.78656,-9.27029 7.12321,-14.36407 4.14527,-2.32904 7.23624,-3.21687 10.83254,-5.71496 3.88266,-2.5574 4.83481,-6.01725 1.25974,-9.76715 -3.09555,-2.7193 -6.26041,-4.57746 -11.03673,-4.50302 -3.04218,0.0935 -6.14039,-0.2719 -9.27554,-3.0771 l -25.22642,-24.54703 -75.15687,-58.8269 c -9.54354,-9.7038 -17.63633,-17.24365 -26.82712,-27.61892 -4.47303,-7.30969 -0.56484,-12.81893 -6.46702,-20.09993 -2.71403,-2.81284 -4.83452,-4.35045 -9.0023,-0.27453 -3.05451,3.84707 -4.38537,8.53625 -6.06019,12.96413 -4.02274,2.55931 -7.9871,3.5764 -11.7603,7.14964 -5.43349,5.09147 -0.76551,8.76645 1.84467,10.40288 7.41389,4.72849 11.6155,1.59954 18.56073,5.55952 12.20585,11.92851 24.45128,24.18104 36.0943,36.09213 z"
                 inkscape:connector-curvature="0" />
              <g
                 transform="matrix(0.9037338,0,0,0.76340273,57.264644,134.72067)"
                 id="g4232">
                <path
                   inkscape:connector-curvature="0"
                   d="m 558.55852,672.949 c -7.45119,-7.6929 -12.65877,-21.04372 -13.38146,-35.46103 -0.7846,-15.88783 7.09374,-31.66404 18.89938,-40.65794 13.22687,-9.88726 35.34253,-12.62177 49.0939,-11.88382 9.31438,0.007 30.06253,5.13612 37.3864,10.92864 12.84723,9.92063 19.73693,24.00129 20.21431,40.05039 0.70595,16.12064 -5.68729,28.39917 -13.51579,36.0623"
                   style="fill:#ffffff;stroke:#000000;stroke-width:5.28543806"
                   id="path3941" />
                <path
                   inkscape:connector-curvature="0"
                   d="m 559.29913,670.23583 c 0,0 -9.00638,28.9595 8.34832,33.89705 l 6.32744,38.73122 c 6.67788,30.48543 60.12039,30.50611 67.98588,0 l 6.32744,-38.73122 c 17.7947,-5.04506 8.76107,-33.90946 8.76107,-33.90946 z"
                   style="fill:#ffffff"
                   id="path3943" />
                <path
                   inkscape:connector-curvature="0"
                   d="m 559.01176,627.75264 c -3.01848,2.80456 -2.63766,7.0205 -2.09409,13.31236 0.4291,4.78041 3.30117,9.48597 3.45225,13.85326 1.056,9.21552 -1.50924,18.43103 -2.71671,25.9639 -0.83016,8.65435 1.50963,16.10699 4.52772,18.99177 3.01809,2.84509 6.91385,4.02324 11.00701,5.34943 3.71898,1.033 5.64758,2.82937 8.46047,5.05664 3.35101,3.77843 4.15041,6.90347 4.07487,10.75013"
                   style="fill:none;stroke:#000000;stroke-width:5.28543806"
                   id="path3945" />
                <path
                   inkscape:connector-curvature="0"
                   d="m 657.291,627.51222 c 3.01848,2.80456 2.63767,7.0205 2.09409,13.31236 -0.4291,4.78041 -3.30117,9.48597 -3.45225,13.85325 -1.056,9.21553 1.50924,18.43104 2.71671,25.9639 0.83016,8.65436 -1.50963,16.107 -4.52772,18.99178 -3.01809,2.84509 -8.54185,4.37308 -11.00702,5.34943 -2.87245,1.06732 -5.80956,3.0014 -8.46046,5.22867 -3.18903,3.26193 -4.15041,6.73144 -4.07487,10.5781"
                   style="fill:none;stroke:#000000;stroke-width:5.28543806"
                   id="path3947" />
                <path
                   inkscape:connector-curvature="0"
                   d="m 567.64005,704.12833 c 2.70152,6.94317 5.56503,13.71431 5.83526,20.82951 -1.24251,5.73814 -0.86443,12.50929 0.48634,17.90337 1.72924,7.40219 8.48304,16.18142 15.23725,19.10796 6.91579,2.66811 11.2383,3.35706 18.9644,3.35706"
                   style="fill:none;stroke:#000000;stroke-width:5.28543806"
                   id="path3949" />
                <path
                   inkscape:connector-curvature="0"
                   d="m 648.28151,704.12832 c -2.70153,6.94317 -5.56503,13.71431 -5.83526,20.82951 1.24251,5.73814 0.86442,12.50928 -0.48634,17.90337 -1.72924,7.40219 -8.56404,15.92337 -15.31824,18.84995 -6.75381,2.92654 -11.07593,3.61508 -18.80242,3.61508"
                   style="fill:none;stroke:#000000;stroke-width:5.28543806"
                   id="path3951" />
                <path
                   inkscape:connector-curvature="0"
                   d="m 606.60694,682.93575 c -3.77543,3.04895 -4.61533,4.07285 -6.70163,7.44685 -0.75501,1.3022 -2.16496,4.34537 -2.55045,6.38697 -0.38509,2.04118 -0.67362,5.00288 -0.67246,6.5714 0.005,5.3151 1.59763,8.6494 3.33738,8.53319 1.55441,-0.18939 3.53247,-1.91092 6.52992,-5.82084"
                   style="stroke:#000000;stroke-width:0.42283506pt"
                   id="path3953" />
                <path
                   inkscape:connector-curvature="0"
                   d="m 609.3256,683.0218 c 3.77543,3.04896 4.61533,4.07286 6.70163,7.44685 0.75501,1.3022 2.16496,4.34537 2.55044,6.38697 0.3851,2.04118 0.67363,5.00289 0.67246,6.57141 -0.005,5.3151 -1.59762,8.64939 -3.33738,8.53319 -1.55441,-0.1894 -3.53246,-1.91092 -6.52991,-5.82085"
                   style="stroke:#000000;stroke-width:0.42283506pt"
                   id="path3955" />
                <path
                   inkscape:connector-curvature="0"
                   d="m 574.51485,659.71602 c 5.24106,-0.97552 10.31976,-1.60656 15.56082,-2.23761 6.86206,-1.83648 10.32015,6.48415 8.42893,12.73879 -2.37717,5.56612 -5.72701,10.4437 -9.5632,15.14885 -2.97175,3.5576 -6.512,4.13323 -9.88793,2.92614 -2.72489,-0.80225 -5.24145,-2.58167 -7.94298,-6.71325 -1.18839,-3.55801 -2.2148,-5.3945 -3.72793,-9.81265 -1.18839,-4.0741 0.66,-10.17284 7.13229,-12.05027 z"
                   style="stroke:#000000;stroke-width:0.42283506pt"
                   id="path3957" />
                <path
                   inkscape:connector-curvature="0"
                   d="m 641.5203,659.71602 c -5.24106,-0.97552 -10.31976,-1.60656 -15.56082,-2.23761 -6.86206,-1.83648 -10.32015,6.48415 -8.42893,12.73879 2.37717,5.56612 5.72701,10.4437 9.56319,15.14885 2.97176,3.5576 6.51201,4.13323 9.88794,2.92614 2.72489,-0.80225 5.24145,-2.58167 7.94298,-6.71325 1.18839,-3.55801 2.21479,-5.3945 3.72793,-9.81265 1.18839,-4.0741 -0.66,-10.17284 -7.13229,-12.05027 z"
                   style="stroke:#000000;stroke-width:0.42283506pt"
                   id="path3959" />
                <path
                   inkscape:connector-curvature="0"
                   d="m 574.41956,707.25917 c 2.21557,5.51814 2.90088,7.61516 4.49852,13.11634 1.36127,5.08187 1.86162,8.18542 2.70269,15.4073"
                   style="fill:none;stroke:#000000;stroke-width:2.64271903"
                   id="path3961" />
                <path
                   inkscape:connector-curvature="0"
                   d="m 641.33632,706.95486 c -2.21558,5.51814 -2.90089,7.61515 -4.49852,13.11634 -1.36127,5.08187 -1.86163,8.18541 -2.70269,15.4073"
                   style="fill:none;stroke:#000000;stroke-width:2.64271903"
                   id="path3963" />
                <path
                   inkscape:connector-curvature="0"
                   d="m 583.87528,720.16213 c 5.73091,3.73294 15.63792,4.30857 24.51386,4.13903 9.88793,-0.0534 18.35268,-0.81177 23.91148,-4.38218"
                   style="fill:none;stroke:#000000;stroke-width:2.11417532"
                   id="path3965" />
                <path
                   inkscape:connector-curvature="0"
                   d="m 585.88098,729.90076 c 6.32277,4.21967 13.75838,5.66868 22.32165,5.32544 8.89423,-0.22992 15.7119,-1.02472 21.80571,-5.44701"
                   style="fill:none;stroke:#000000;stroke-width:2.11417532"
                   id="path3967" />
                <path
                   inkscape:connector-curvature="0"
                   d="m 581.29641,735.01282 c 6.76238,8.66263 16.20136,10.16664 26.93464,10.46851 11.49413,0.44538 23.0381,-4.40202 26.01803,-10.4681"
                   style="fill:none;stroke:#000000;stroke-width:2.64271903"
                   id="path3969" />
                <path
                   inkscape:connector-curvature="0"
                   d="m 585.79415,722.03294 -0.16198,17.0424"
                   style="stroke:#000000;stroke-width:2.11417532"
                   id="path3971" />
                <path
                   inkscape:connector-curvature="0"
                   d="m 591.06208,723.84048 -0.081,18.24743"
                   style="stroke:#000000;stroke-width:2.11417532"
                   id="path3973" />
                <path
                   inkscape:connector-curvature="0"
                   d="m 596.89734,724.61502 -0.16198,19.1084"
                   style="stroke:#000000;stroke-width:2.11417532"
                   id="path3975" />
                <path
                   inkscape:connector-curvature="0"
                   d="m 602.16566,725.04551 -0.0814,19.36644"
                   style="stroke:#000000;stroke-width:2.11417532"
                   id="path3977" />
                <path
                   inkscape:connector-curvature="0"
                   d="m 608.08191,725.21754 0,19.36644"
                   style="stroke:#000000;stroke-width:2.11417532"
                   id="path3979" />
                <path
                   inkscape:connector-curvature="0"
                   d="m 613.75519,725.13152 0.081,19.36644"
                   style="stroke:#000000;stroke-width:2.11417532"
                   id="path3981" />
                <path
                   inkscape:connector-curvature="0"
                   d="m 618.86104,724.61501 0.16199,19.02238"
                   style="stroke:#000000;stroke-width:2.11417532"
                   id="path3983" />
                <path
                   inkscape:connector-curvature="0"
                   d="m 624.7774,723.58244 0.081,18.24742"
                   style="stroke:#000000;stroke-width:2.11417532"
                   id="path3985" />
                <path
                   inkscape:connector-curvature="0"
                   d="m 630.12632,721.34441 0.16237,17.21443"
                   style="stroke:#000000;stroke-width:2.11417532"
                   id="path3987" />
                <path
                   inkscape:connector-curvature="0"
                   d="m 577.60768,666.50205 c 3.33768,-0.47877 6.57195,-0.78847 9.90963,-1.09818 4.36997,-0.90131 6.5722,3.18229 5.36781,6.25195 -1.51386,2.73173 -3.64715,5.12556 -6.09015,7.43475 -1.89251,1.746 -4.14705,2.02851 -6.29695,1.43609 -1.73529,-0.39373 -3.33793,-1.26703 -5.05834,-3.29473 -0.7568,-1.7462 -1.41046,-2.64751 -2.37407,-4.81586 -0.7568,-1.99948 0.42031,-4.99262 4.54207,-5.91402 z"
                   style="fill:#ff0000;stroke:#000000;stroke-width:0.42283506pt"
                   id="path3957-4" />
                <path
                   inkscape:connector-curvature="0"
                   d="m 638.44731,665.79228 c -3.14832,-0.48485 -6.1991,-0.79849 -9.34743,-1.11213 -4.12205,-0.91277 -6.19933,3.22274 -5.06327,6.33141 1.42797,2.76645 3.44024,5.1907 5.74463,7.52924 1.78515,1.76819 3.91178,2.0543 5.93971,1.45434 1.63684,-0.39872 3.14855,-1.28313 4.77137,-3.3366 0.71386,-1.76839 1.33043,-2.68116 2.23937,-4.87706 0.71387,-2.0249 -0.39647,-5.05609 -4.28438,-5.9892 z"
                   style="fill:#ff0000;stroke:#000000;stroke-width:0.42283506pt"
                   id="path3959-4" />
              </g>
            </g>
            <text
               xml:space="preserve"
               style="font-size:136.97743225px;font-style:normal;font-weight:normal;line-height:125%;letter-spacing:0px;word-spacing:0px;fill:#000000;fill-opacity:1;stroke:none;font-family:Sans"
               x="627.47382"
               y="411.05637"
               id="text4291"
               sodipodi:linespacing="125%"
               transform="matrix(0.79654993,0.77273248,-0.61755739,0.65632213,0,0)"><tspan
                 sodipodi:role="line"
                 id="tspan4293"
                 x="627.47382"
                 y="411.05637"
                 style="font-style:normal;font-variant:normal;font-weight:bold;font-stretch:normal;font-family:Arial;-inkscape-font-specification:Arial Bold">CTF</tspan></text>
          </g>
        </g>
      </g>
      <g
         transform="translate(1.4285714,45)"
         id="g5619">
        <rect
           style="fill:#cbe8ec;fill-opacity:1;fill-rule:evenodd;stroke:#cbe8ec;stroke-width:13.17979908;stroke-linejoin:round;stroke-miterlimit:4;stroke-opacity:1;stroke-dasharray:none"
           id="rect5585"
           width="370.70593"
           height="80.70591"
           x="334.63651"
           y="320.95883" />
        <g
           id="g5587"
           transform="translate(776.06091,-289.26468)">
          <path
             id="path5524"
             d="m -402.03405,619.82809 c -4.96503,0.22879 -7.88316,6.324 -3.48599,10.2766 -0.28156,-0.0782 -12.15789,0.1642 -12.15789,0.1642 -1.13012,0.12667 -1.71681,0.72791 -1.63829,2.39468 l 0.0739,8.85347 c 7.1738,-3.37144 10.88214,1.58819 11.12316,5.40514 0.19742,3.12632 -5.45987,7.55439 -10.91376,4.37884 l 0.1355,9.68819 c 0.42831,0.71669 1.14641,1.21877 1.97088,1.64206 l -0.0616,0.62946 c -0.66755,-0.27241 -1.22508,-0.42064 -1.76148,-0.54735 -1.46837,4.2713 -1.97698,6.94333 -2.95632,10.39975 l 1.13326,3.3115 c 5.45533,3.464 9.98147,3.96991 15.90256,2.31257 l 2.45128,-10.24922 c -0.57836,-0.93864 -0.98742,-1.66946 -1.51511,-2.91467 l -0.6159,-0.12316 c 1.25542,-6.28487 -0.0978,-6.56223 -1.66294,-8.29243 -0.70388,0.17207 -1.15613,0.74564 -1.86002,1.35471 1.99476,2.38636 1.81658,2.90868 0.87458,6.23985 l -7.39081,-1.40944 -0.0739,-0.86209 6.55319,0 c -2.12207,-0.52079 -4.81495,-1.29347 -3.55991,-4.29674 l 2.50056,-6.26722 1.40425,-3.83148 c 4.48022,8.62176 10.98337,2.97472 11.30794,0.67051 0.33248,-2.36038 -2.11186,-8.14621 -10.11309,-3.76307 2.01702,-5.46367 2.12215,-5.62072 3.54759,-9.56503 0.60735,-1.67015 1.66221,-2.85892 4.59462,-1.99785 l 7.39081,2.10732 c -0.30055,-2.85806 0.45538,-3.76873 2.43896,-5.47356 l -8.59797,-0.041 c 2.65637,-4.1021 3.64154,-8.73613 -4.01567,-10.15344 -0.34764,-0.0393 -0.6914,-0.0563 -1.0224,-0.041 z m -14.7693,47.44202 13.131,2.29889 -2.06942,8.51138 c -4.66344,0.82826 -8.11992,1.23025 -13.34041,-2.07995 l 2.27883,-8.73032 z"
             style="fill:#4b7f7d;fill-opacity:1;stroke:#4b7f7d;stroke-width:0.41545597px;stroke-linecap:butt;stroke-linejoin:miter;stroke-opacity:1"
             inkscape:connector-curvature="0" />
          <path
             sodipodi:nodetypes="ccccc"
             inkscape:connector-curvature="0"
             id="path5526"
             d="m -417.09722,675.36151 1.74212,-6.41187 9.69604,1.72026 -1.53096,6.33368 c -3.34987,0.24359 -6.69517,0.41114 -9.9072,-1.64207 z"
             style="fill:#4b7f7d;fill-opacity:1;stroke:#4b7f7d;stroke-width:0.41545597px;stroke-linecap:butt;stroke-linejoin:miter;stroke-opacity:1" />
          <path
             sodipodi:nodetypes="ccccccccccccccccccccccccc"
             inkscape:connector-curvature="0"
             id="path5533"
             d="m -373.58683,653.11992 3.13566,-8.34898 c 0.61814,-1.87845 -0.0367,-2.43292 -0.89591,-2.76457 l -9.80514,-2.70926 c 3.12175,-2.41397 5.07145,-6.39849 -1.34385,-9.34422 -2.46214,-0.75256 -8.92701,0.46733 -6.81881,6.96669 l -9.65582,-2.83368 c -1.28771,-0.26171 -2.21853,-0.11732 -2.83703,1.18877 l -3.23519,8.27986 c 5.09808,-2.40089 10.49634,0.14262 9.55628,6.02674 -0.7431,2.93621 -7.67388,7.11083 -11.79603,0.6635 l -3.08589,7.96194 c -0.49722,1.15941 -0.12317,2.45235 0.5475,2.80603 l 2.47617,0.77407 c 0.0285,-1.19354 -0.57795,-2.04058 -1.58027,-2.72309 0.22661,-2.75778 2.08062,-2.60552 3.30986,-2.68162 1.28469,0.46211 3.25624,2.44918 2.76236,6.63495 l 2.71259,0.84319 c -1.73701,-4.04676 1.56154,-7.24807 6.53261,-7.13257 2.40013,-0.24719 9.4215,4.61201 2.84947,9.88331 l 9.30742,2.54339 c 0.91755,0.17217 1.79397,0.0677 2.5135,-1.53433 l 3.21031,-8.58396 c 2.03404,4.19185 8.73185,5.04981 10.99968,0.0553 1.55873,-4.2967 -2.74569,-8.47295 -8.85947,-5.97145 z"
             style="fill:none;stroke:#4b7f7d;stroke-width:0.41545597px;stroke-linecap:butt;stroke-linejoin:miter;stroke-opacity:1" />
          <path
             sodipodi:nodetypes="cccc"
             inkscape:connector-curvature="0"
             id="path5535"
             d="m -399.65843,662.38137 10.66388,-0.11728 c -0.46217,-2.46988 -2.66142,-4.64739 -5.36714,-4.65253 -2.57279,0.10418 -4.92646,0.85423 -5.29674,4.76981 z"
             style="fill:#4b7f7d;fill-opacity:1;stroke:#4b7f7d;stroke-width:0.41545597px;stroke-linecap:butt;stroke-linejoin:miter;stroke-opacity:1" />
          <path
             sodipodi:nodetypes="ccccc"
             inkscape:connector-curvature="0"
             id="path5543"
             d="m -351.10786,687.18829 1e-5,-74.5967 -83.83289,0.0782 0.14077,74.36212 z"
             style="fill:none;stroke:#4b7f7d;stroke-width:5.7332921;stroke-linecap:butt;stroke-linejoin:round;stroke-miterlimit:4;stroke-opacity:1;stroke-dasharray:none" />
          <text
             transform="scale(0.97347196,1.027251)"
             sodipodi:linespacing="125%"
             id="text5556"
             y="623.60864"
             x="-348.56372"
             style="font-size:24.24289513px;font-style:normal;font-weight:normal;line-height:125%;letter-spacing:0px;word-spacing:0px;fill:#000000;fill-opacity:1;stroke:none;font-family:Sans"
             xml:space="preserve"><tspan
               style="font-size:29.09147453px;font-style:normal;font-variant:normal;font-weight:bold;font-stretch:normal;fill:#4b7f7d;fill-opacity:1;stroke:#4b7f7d;stroke-width:0.60607237;stroke-opacity:1;font-family:UnBatang;-inkscape-font-specification:UnBatang Bold"
               y="623.60864"
               x="-348.56372"
               id="tspan5558"
               sodipodi:role="line">ФАКУЛЬТЕТ</tspan><tspan
               style="font-size:29.09147453px;font-style:normal;font-variant:normal;font-weight:bold;font-stretch:normal;fill:#4b7f7d;fill-opacity:1;stroke:#4b7f7d;stroke-width:0.60607237;stroke-opacity:1;font-family:UnBatang;-inkscape-font-specification:UnBatang Bold"
               id="tspan5560"
               y="659.97296"
               x="-348.56372"
               sodipodi:role="line">БЕЗОПАСНОСТИ</tspan></text>
        </g>
      </g>
    </g>
    <text
       sodipodi:linespacing="125%"
       id="text5484-2"
       y="958.42859"
       x="74.499588"
       style="font-size:40px;font-style:normal;font-weight:bold;line-height:125%;letter-spacing:0px;word-spacing:0px;fill:#cbe8ec;fill-opacity:1;stroke:none;font-family:Sans;-inkscape-font-specification:Sans Bold"
       xml:space="preserve"><tspan
         y="958.42859"
         x="74.499588"
         id="tspan5486-4"
         sodipodi:role="line"
         style="font-size:24px;font-weight:bold;fill:#cbe8ec;fill-opacity:1;stroke:none;-inkscape-font-specification:Sans Bold">к.т.н, доцент ТУСУРа</tspan><tspan
         y="988.42859"
         x="74.499588"
         sodipodi:role="line"
         style="font-size:24px;font-weight:bold;fill:#cbe8ec;fill-opacity:1;stroke:none;-inkscape-font-specification:Sans Bold"
         id="tspan3899">Конев А.А.</tspan><tspan
         y="1018.4286"
         x="74.499588"
         sodipodi:role="line"
         style="font-size:24px;font-weight:bold;fill:#cbe8ec;fill-opacity:1;stroke:none;-inkscape-font-specification:Sans Bold"
         id="tspan3897" /><tspan
         y="1048.4285"
         x="74.499588"
         sodipodi:role="line"
         id="tspan5492-1"
         style="font-size:24px;font-weight:bold;fill:#cbe8ec;fill-opacity:1;stroke:none;-inkscape-font-specification:Sans Bold" /></text>
  </g>
</svg>
